<svg xmlns="http://www.w3.org/2000/svg" xmlns:xlink="http://www.w3.org/1999/xlink" width="500" zoomAndPan="magnify" viewBox="0 0 375 374.999991" height="500" preserveAspectRatio="xMidYMid meet" version="1.0"><path fill="#f36933" d="M 41.128906 146.90625 C 62.171875 81.878906 113.355469 47.351562 166.46875 40.019531 C 148.542969 61.933594 137.582031 90.613281 137.582031 122.109375 C 137.582031 190.847656 189.347656 246.5625 253.222656 246.5625 C 288.988281 246.5625 320.960938 229.066406 342.167969 201.605469 C 327.640625 281.441406 229.164062 345.140625 158.113281 341.65625 C 48.804688 336.308594 4.699219 259.472656 41.128906 146.90625 Z M 41.128906 146.90625 " fill-opacity="1" fill-rule="nonzero"/><path fill="#000000" d="M 39.828125 332.089844 C 41.5 332.089844 45.320312 331.523438 47.726562 326.738281 C 64.632812 294.589844 94.339844 302.574219 111.191406 310.644531 C 113.242188 312.414062 115.183594 313.375 116.667969 314.113281 C 117.292969 314.410156 117.929688 314.605469 118.609375 314.734375 C 158.890625 336.011719 212.839844 335.867188 263.375 314.265625 C 304.433594 297.59375 342.539062 265.613281 367.742188 226.574219 C 369.582031 223.730469 369.15625 219.976562 366.707031 217.640625 C 364.285156 215.292969 360.535156 214.980469 357.746094 216.921875 C 346.089844 225.046875 334.496094 232.84375 320.886719 238.804688 C 273.527344 260.308594 226.164062 262.078125 189.039062 244.242188 C 240.902344 203.117188 284.511719 151.097656 317.136719 109.722656 C 323.945312 101.453125 331.125 92.777344 336.023438 83.929688 C 337.695312 80.886719 336.929688 77.078125 334.210938 74.941406 C 331.464844 72.789062 327.585938 72.933594 325.050781 75.28125 C 300.570312 97.71875 267.523438 123.199219 239.796875 143.042969 C 250.773438 129.90625 260.472656 117.605469 268.117188 107.597656 C 300.726562 64.992188 300.203125 64.480469 295.316406 59.625 C 292.554688 56.90625 288.039062 56.9375 285.277344 59.652344 C 213.519531 131.324219 145.527344 175.332031 135.035156 181.957031 C 134.75 180.964844 134.523438 180.03125 134.355469 179.195312 C 123.480469 134.71875 135.53125 85.046875 167.332031 42.625 C 169.355469 39.933594 169.1875 36.183594 166.949219 33.664062 C 164.699219 31.144531 160.988281 30.578125 158.085938 32.261719 C 79.613281 78.210938 36.300781 164.433594 55.121094 237.289062 C 55.246094 237.730469 55.402344 238.167969 55.585938 238.578125 C 27.410156 274.730469 25.921875 313.773438 31.628906 326.144531 C 34.066406 331.421875 38.101562 332.074219 39.714844 332.101562 C 39.742188 332.089844 39.785156 332.089844 39.828125 332.089844 Z M 35.15625 320.226562 C 35.15625 320.242188 35.140625 320.253906 35.140625 320.269531 C 35.140625 320.253906 35.15625 320.242188 35.15625 320.226562 Z M 332.203125 249.179688 C 311.035156 271.886719 285.179688 290.144531 257.894531 301.214844 C 210.660156 321.457031 160.605469 321.558594 123.949219 301.554688 C 123.226562 301.160156 122.460938 300.890625 121.652344 300.761719 C 121.074219 300.453125 120.632812 300.140625 120.195312 299.714844 C 119.65625 299.191406 119.035156 298.738281 118.355469 298.398438 C 106.332031 292.46875 68.441406 277.390625 43.140625 308.054688 C 43.566406 293.613281 48.761719 268.941406 68.910156 244.550781 C 70.679688 242.398438 71.019531 239.414062 69.789062 236.90625 C 69.421875 235.464844 69.121094 234.316406 68.640625 233.15625 C 54.070312 175.53125 82.292969 108.5625 137.230469 63.871094 C 117.292969 102.316406 111.160156 144.078125 120.507812 182.28125 C 121.199219 185.765625 122.730469 190.605469 124.613281 195.277344 C 125.378906 197.160156 126.894531 198.601562 128.804688 199.28125 C 130.714844 199.960938 132.8125 199.792969 134.582031 198.828125 C 137.144531 197.429688 139.253906 196.125 141.277344 194.726562 C 145.117188 192.347656 186.644531 166.214844 239.289062 121.285156 C 225.1875 138.738281 208.929688 157.722656 192.308594 174.921875 C 189.859375 177.46875 189.644531 181.40625 191.8125 184.191406 C 193.980469 186.96875 197.886719 187.730469 200.929688 185.976562 C 217.796875 176.28125 251.863281 152.769531 284.9375 127.117188 C 253.929688 164.6875 215.628906 206.558594 171.820312 239.640625 C 169.949219 241.070312 168.902344 243.320312 169.03125 245.671875 C 169.15625 248.019531 170.433594 250.144531 172.441406 251.359375 C 214.777344 276.824219 270.992188 276.980469 326.652344 251.730469 C 328.535156 250.90625 330.390625 250.042969 332.203125 249.179688 Z M 61.957031 235.519531 L 61.816406 235.519531 Z M 61.957031 235.519531 " fill-opacity="1" fill-rule="nonzero"/></svg>