<svg xmlns="http://www.w3.org/2000/svg" xmlns:xlink="http://www.w3.org/1999/xlink" width="500" zoomAndPan="magnify" viewBox="0 0 375 374.999991" height="500" preserveAspectRatio="xMidYMid meet" version="1.0"><defs><g/><clipPath id="5c6be82e93"><path d="M 138 117 L 235 117 L 235 210.941406 L 138 210.941406 Z M 138 117 " clip-rule="nonzero"/></clipPath><clipPath id="d3d4b4ab31"><path d="M 138 114.191406 L 244 114.191406 L 244 208 L 138 208 Z M 138 114.191406 " clip-rule="nonzero"/></clipPath></defs><g clip-path="url(#5c6be82e93)"><path fill="#f36933" d="M 142.71875 150.117188 C 149.167969 130.09375 164.851562 119.464844 181.128906 117.207031 C 175.636719 123.953125 172.277344 132.785156 172.277344 142.480469 C 172.277344 163.644531 188.140625 180.796875 207.714844 180.796875 C 218.675781 180.796875 228.472656 175.410156 234.972656 166.957031 C 230.523438 191.535156 200.34375 211.148438 178.570312 210.074219 C 145.070312 208.425781 131.554688 184.773438 142.71875 150.117188 Z M 142.71875 150.117188 " fill-opacity="1" fill-rule="nonzero"/></g><g clip-path="url(#d3d4b4ab31)"><path fill="#000000" d="M 142.320312 207.128906 C 142.832031 207.128906 144.003906 206.953125 144.742188 205.480469 C 149.921875 195.585938 159.027344 198.042969 164.1875 200.527344 C 164.816406 201.070312 165.414062 201.367188 165.867188 201.59375 C 166.058594 201.683594 166.253906 201.746094 166.460938 201.785156 C 178.808594 208.335938 195.339844 208.292969 210.828125 201.640625 C 223.410156 196.507812 235.085938 186.664062 242.808594 174.644531 C 243.375 173.765625 243.246094 172.613281 242.492188 171.894531 C 241.75 171.171875 240.601562 171.074219 239.746094 171.671875 C 236.175781 174.171875 232.621094 176.574219 228.453125 178.410156 C 213.9375 185.027344 199.421875 185.574219 188.046875 180.082031 C 203.941406 167.421875 217.304688 151.40625 227.300781 138.667969 C 229.390625 136.121094 231.589844 133.449219 233.089844 130.726562 C 233.601562 129.789062 233.367188 128.617188 232.535156 127.960938 C 231.695312 127.296875 230.503906 127.339844 229.726562 128.0625 C 222.226562 134.972656 212.097656 142.816406 203.601562 148.925781 C 206.964844 144.882812 209.9375 141.09375 212.28125 138.011719 C 222.273438 124.894531 222.113281 124.738281 220.617188 123.242188 C 219.769531 122.40625 218.386719 122.414062 217.539062 123.253906 C 195.546875 145.316406 174.710938 158.867188 171.496094 160.90625 C 171.410156 160.601562 171.339844 160.3125 171.289062 160.058594 C 167.957031 146.363281 171.648438 131.070312 181.394531 118.011719 C 182.015625 117.183594 181.960938 116.027344 181.277344 115.25 C 180.585938 114.476562 179.449219 114.300781 178.558594 114.820312 C 154.511719 128.964844 141.238281 155.511719 147.007812 177.941406 C 147.046875 178.078125 147.09375 178.210938 147.148438 178.339844 C 138.515625 189.46875 138.058594 201.488281 139.808594 205.296875 C 140.554688 206.925781 141.789062 207.125 142.285156 207.132812 C 142.292969 207.128906 142.308594 207.128906 142.320312 207.128906 Z M 140.886719 203.476562 C 140.886719 203.480469 140.882812 203.484375 140.882812 203.488281 C 140.882812 203.484375 140.886719 203.480469 140.886719 203.476562 Z M 231.917969 181.601562 C 225.433594 188.59375 217.507812 194.214844 209.148438 197.625 C 194.671875 203.855469 179.332031 203.886719 168.097656 197.726562 C 167.878906 197.605469 167.644531 197.523438 167.394531 197.484375 C 167.21875 197.386719 167.082031 197.292969 166.949219 197.160156 C 166.785156 197 166.59375 196.859375 166.382812 196.757812 C 162.699219 194.929688 151.089844 190.289062 143.335938 199.730469 C 143.464844 195.285156 145.058594 187.6875 151.230469 180.179688 C 151.773438 179.515625 151.878906 178.597656 151.5 177.824219 C 151.386719 177.378906 151.296875 177.027344 151.148438 176.667969 C 146.683594 158.929688 155.332031 138.308594 172.167969 124.550781 C 166.058594 136.386719 164.179688 149.246094 167.042969 161.007812 C 167.257812 162.078125 167.726562 163.570312 168.300781 165.007812 C 168.535156 165.585938 169 166.03125 169.585938 166.242188 C 170.171875 166.449219 170.816406 166.398438 171.355469 166.101562 C 172.144531 165.671875 172.789062 165.269531 173.410156 164.835938 C 174.585938 164.105469 187.3125 156.058594 203.445312 142.226562 C 199.125 147.601562 194.140625 153.445312 189.046875 158.742188 C 188.296875 159.523438 188.230469 160.738281 188.894531 161.59375 C 189.558594 162.449219 190.757812 162.683594 191.691406 162.144531 C 196.859375 159.160156 207.296875 151.921875 217.433594 144.023438 C 207.933594 155.589844 196.195312 168.480469 182.769531 178.664062 C 182.195312 179.105469 181.875 179.800781 181.914062 180.523438 C 181.953125 181.246094 182.34375 181.898438 182.960938 182.273438 C 195.933594 190.113281 213.160156 190.164062 230.21875 182.386719 C 230.796875 182.136719 231.363281 181.867188 231.917969 181.601562 Z M 149.101562 177.398438 L 149.058594 177.398438 Z M 149.101562 177.398438 " fill-opacity="1" fill-rule="nonzero"/></g><g fill="#000000" fill-opacity="1"><g transform="translate(2.40419, 248.779399)"><g><path d="M 3.917969 -9.316406 C 3.917969 -7.007812 3.832031 -4.699219 3.746094 -2.921875 C 3.683594 -1.882812 3.640625 -0.910156 3.601562 0 L 18.125 0 L 18.125 -2.773438 C 17.574219 -2.667969 16.855469 -2.5625 15.988281 -2.476562 C 14.484375 -2.328125 12.175781 -2.160156 8.789062 -2.097656 C 8.722656 -2.921875 8.703125 -4.003906 8.683594 -5.25 C 8.660156 -6.5 8.640625 -7.898438 8.640625 -9.316406 L 8.640625 -18.464844 C 8.640625 -19.734375 8.660156 -21.007812 8.683594 -22.296875 C 8.746094 -24.839844 8.808594 -26.976562 8.894531 -28.269531 C 8.914062 -28.902344 8.9375 -29.222656 8.9375 -29.222656 L 3.601562 -29.222656 C 3.640625 -28.289062 3.683594 -27.316406 3.746094 -26.277344 C 3.832031 -24.5 3.917969 -22.191406 3.917969 -19.839844 Z M 3.917969 -9.316406 "/></g></g></g><g fill="#000000" fill-opacity="1"><g transform="translate(20.629813, 248.779399)"><g><path d="M 7.6875 -21.535156 C 7.6875 -22.253906 7.707031 -23.058594 7.730469 -23.949219 C 7.792969 -25.707031 7.855469 -27.359375 7.941406 -29.222656 L 2.625 -29.222656 C 2.667969 -28.269531 2.710938 -27.273438 2.773438 -26.234375 C 2.835938 -24.457031 2.921875 -22.105469 2.921875 -19.734375 L 2.921875 -13.679688 C 2.921875 -9.507812 3.707031 -5.90625 5.78125 -3.367188 C 7.855469 -0.824219 11.242188 0.675781 16.472656 0.675781 C 20.605469 0.675781 23.820312 -0.507812 26.023438 -3.050781 C 28.226562 -5.570312 29.390625 -9.402344 29.390625 -14.675781 L 29.390625 -19.863281 C 29.390625 -21.027344 29.414062 -22.148438 29.433594 -23.273438 C 29.496094 -25.496094 29.601562 -27.359375 29.707031 -29.222656 L 26.34375 -29.222656 C 26.382812 -28.289062 26.425781 -27.316406 26.492188 -26.277344 C 26.554688 -24.5 26.636719 -22.171875 26.636719 -19.863281 L 26.636719 -14.652344 C 26.636719 -9.847656 25.621094 -6.5625 23.929688 -4.46875 C 22.210938 -2.351562 19.777344 -1.460938 16.984375 -1.460938 C 14.378906 -1.460938 12.472656 -2.308594 11.074219 -3.707031 C 9.675781 -5.101562 8.808594 -7.074219 8.300781 -9.296875 C 7.769531 -11.519531 7.601562 -14.039062 7.625 -16.515625 Z M 7.6875 -21.535156 "/></g></g></g><g fill="#000000" fill-opacity="1"><g transform="translate(52.97445, 248.779399)"><g><path d="M 23.863281 -3.34375 C 23.292969 -2.984375 22.679688 -2.648438 21.980469 -2.371094 C 20.792969 -1.882812 19.078125 -1.398438 17.109375 -1.417969 C 13.65625 -1.441406 10.988281 -2.964844 9.148438 -5.355469 C 7.304688 -7.75 6.332031 -11.03125 6.332031 -14.652344 C 6.332031 -17.789062 7.007812 -20.285156 8.109375 -22.234375 C 9.210938 -24.183594 10.714844 -25.558594 12.410156 -26.46875 C 14.101562 -27.378906 15.964844 -27.78125 17.746094 -27.78125 C 18.65625 -27.78125 19.480469 -27.675781 20.222656 -27.484375 C 21.726562 -27.082031 22.828125 -26.574219 23.820312 -25.875 L 24.414062 -28.714844 C 23.863281 -28.945312 23.230469 -29.136719 22.507812 -29.304688 C 21.261719 -29.625 19.523438 -29.898438 17.320312 -29.898438 C 14.503906 -29.898438 11.773438 -29.371094 9.402344 -28.269531 C 7.007812 -27.167969 4.976562 -25.515625 3.535156 -23.25 C 2.074219 -20.964844 1.226562 -18.082031 1.226562 -14.589844 C 1.226562 -9.929688 2.859375 -6.097656 5.652344 -3.472656 C 8.449219 -0.824219 12.386719 0.675781 17.023438 0.675781 C 18.230469 0.675781 19.3125 0.613281 20.222656 0.464844 C 22.042969 0.210938 23.355469 -0.105469 24.4375 -0.59375 Z M 23.863281 -3.34375 "/></g></g></g><g fill="#000000" fill-opacity="1"><g transform="translate(79.159223, 248.779399)"><g><path d="M 4.785156 -9.019531 C 4.320312 -7.917969 3.832031 -6.839844 3.34375 -5.757812 C 2.328125 -3.621094 1.480469 -1.800781 0.550781 0 L 4.257812 0 C 4.257812 -0.0859375 4.382812 -0.464844 4.636719 -1.164062 L 5.652344 -3.855469 C 6.5 -6.054688 7.664062 -9.019531 8.9375 -12.15625 C 9.59375 -12.21875 10.609375 -12.261719 12.535156 -12.261719 L 15.394531 -12.261719 C 16.433594 -12.261719 17.214844 -12.238281 17.808594 -12.21875 C 18.402344 -12.195312 18.824219 -12.15625 19.164062 -12.132812 L 19.375 -11.582031 C 19.714844 -10.734375 20.054688 -9.867188 20.390625 -8.976562 C 21.046875 -7.179688 21.640625 -5.441406 22.148438 -3.917969 C 22.636719 -2.394531 23.015625 -1.226562 23.207031 -0.550781 L 23.335938 0 L 29.453125 0 C 29.050781 -0.761719 28.628906 -1.628906 28.164062 -2.605469 C 27.378906 -4.277344 26.34375 -6.542969 25.242188 -9.339844 L 17.195312 -29.414062 L 13.445312 -29.074219 Z M 18.359375 -14.316406 C 17.679688 -14.292969 16.917969 -14.273438 15.414062 -14.273438 L 10.757812 -14.273438 C 10.355469 -14.273438 10.015625 -14.292969 9.742188 -14.316406 L 14.167969 -24.945312 Z M 18.359375 -14.316406 "/></g></g></g><g fill="#000000" fill-opacity="1"><g transform="translate(109.154223, 248.779399)"><g><path d="M 2.5 -0.59375 C 3.175781 -0.359375 3.917969 -0.148438 4.722656 0.0429688 C 6.097656 0.359375 7.984375 0.675781 10.164062 0.675781 C 13.402344 0.675781 15.859375 -0.234375 17.492188 -1.757812 C 19.101562 -3.28125 19.925781 -5.421875 19.925781 -7.855469 C 19.925781 -9.867188 19.121094 -11.5 17.871094 -12.917969 C 16.621094 -14.335938 15.011719 -15.519531 13.363281 -16.621094 C 11.710938 -17.722656 10.078125 -18.761719 8.832031 -19.882812 C 7.582031 -20.984375 6.777344 -22.171875 6.777344 -23.589844 C 6.777344 -24.796875 7.304688 -25.855469 8.238281 -26.597656 C 9.148438 -27.335938 10.4375 -27.78125 11.964844 -27.78125 C 12.746094 -27.78125 13.46875 -27.695312 14.082031 -27.507812 C 15.332031 -27.148438 16.199219 -26.636719 16.726562 -26.234375 C 16.984375 -26.023438 17.152344 -25.898438 17.238281 -25.855469 L 17.703125 -28.671875 C 17.257812 -28.902344 16.769531 -29.09375 16.199219 -29.285156 C 15.203125 -29.601562 13.785156 -29.898438 12.007812 -29.898438 C 8.957031 -29.898438 6.710938 -29.136719 5.230469 -27.804688 C 3.746094 -26.46875 3.007812 -24.585938 3.007812 -22.296875 C 3.007812 -20.371094 3.832031 -18.804688 5.039062 -17.425781 C 6.246094 -16.050781 7.878906 -14.863281 9.507812 -13.742188 C 11.136719 -12.621094 12.769531 -11.539062 13.976562 -10.355469 C 15.183594 -9.167969 16.007812 -7.878906 16.007812 -6.351562 C 16.007812 -5.1875 15.542969 -3.960938 14.609375 -3.027344 C 13.679688 -2.074219 12.261719 -1.417969 10.375 -1.417969 C 9.378906 -1.417969 8.429688 -1.523438 7.558594 -1.714844 C 5.78125 -2.117188 4.382812 -2.605469 3.050781 -3.34375 Z M 2.5 -0.59375 "/></g></g></g><g fill="#000000" fill-opacity="1"><g transform="translate(131.211243, 248.779399)"><g/></g></g><g fill="#000000" fill-opacity="1"><g transform="translate(143.403987, 248.779399)"><g><path d="M 3.917969 -9.316406 C 3.917969 -7.007812 3.832031 -4.699219 3.746094 -2.921875 C 3.683594 -1.882812 3.640625 -0.910156 3.601562 0 L 6.671875 0 C 7.304688 0 7.960938 0.0195312 8.640625 0.0429688 C 9.996094 0.105469 11.265625 0.148438 12.429688 0.210938 C 13 0.234375 13.53125 0.253906 13.976562 0.253906 C 18.824219 0.253906 22.636719 -1.269531 25.242188 -3.917969 C 27.84375 -6.5625 29.199219 -10.375 29.199219 -14.949219 C 29.199219 -19.714844 27.570312 -23.335938 24.859375 -25.769531 C 22.148438 -28.207031 18.335938 -29.433594 13.933594 -29.433594 C 12.851562 -29.433594 11.5 -29.390625 10.164062 -29.328125 C 8.832031 -29.265625 7.539062 -29.222656 6.671875 -29.222656 L 3.515625 -29.222656 L 3.707031 -26.277344 C 3.8125 -24.5 3.917969 -22.191406 3.917969 -19.839844 Z M 8.640625 -27.230469 C 8.957031 -27.230469 9.570312 -27.253906 10.460938 -27.273438 C 11.328125 -27.292969 12.34375 -27.292969 13.488281 -27.292969 C 16.21875 -27.292969 18.335938 -26.554688 19.925781 -25.367188 C 21.515625 -24.160156 22.574219 -22.488281 23.25 -20.582031 C 23.90625 -18.675781 24.183594 -16.515625 24.183594 -14.398438 C 24.183594 -10.164062 22.933594 -7.050781 20.984375 -4.976562 C 19.035156 -2.902344 16.367188 -1.882812 13.574219 -1.882812 C 12.640625 -1.882812 12.070312 -1.90625 11.414062 -1.925781 C 10.757812 -1.949219 10.035156 -1.96875 8.832031 -1.96875 C 8.722656 -3.664062 8.640625 -6.4375 8.640625 -9.316406 Z M 8.640625 -27.230469 "/></g></g></g><g fill="#000000" fill-opacity="1"><g transform="translate(173.75885, 248.779399)"><g><path d="M 17.957031 0 L 17.957031 -2.773438 C 17.300781 -2.667969 16.539062 -2.582031 15.648438 -2.5 C 14.101562 -2.351562 11.835938 -2.160156 8.765625 -2.097656 L 8.703125 -3.535156 C 8.683594 -4.066406 8.683594 -4.660156 8.660156 -5.273438 C 8.617188 -6.523438 8.597656 -7.898438 8.597656 -9.316406 L 8.597656 -14.570312 C 9.972656 -14.546875 11.136719 -14.503906 12.113281 -14.484375 C 14.039062 -14.398438 15.332031 -14.335938 16.261719 -14.25 L 16.261719 -17.023438 C 15.796875 -16.984375 15.203125 -16.941406 14.484375 -16.898438 C 13.234375 -16.835938 11.328125 -16.769531 8.597656 -16.707031 L 8.597656 -27.105469 C 10.058594 -27.0625 11.371094 -27 12.515625 -26.933594 C 14.78125 -26.785156 16.433594 -26.636719 17.808594 -26.449219 L 17.808594 -29.222656 L 3.472656 -29.222656 L 3.664062 -26.277344 C 3.769531 -24.5 3.875 -22.191406 3.875 -19.839844 L 3.875 -9.316406 C 3.875 -7.007812 3.789062 -4.699219 3.707031 -2.921875 C 3.640625 -1.882812 3.601562 -0.910156 3.558594 0 Z M 17.957031 0 "/></g></g></g><g fill="#000000" fill-opacity="1"><g transform="translate(193.360391, 248.779399)"><g/></g></g><g fill="#000000" fill-opacity="1"><g transform="translate(205.553136, 248.779399)"><g><path d="M 4.785156 -9.019531 C 4.320312 -7.917969 3.832031 -6.839844 3.34375 -5.757812 C 2.328125 -3.621094 1.480469 -1.800781 0.550781 0 L 4.257812 0 C 4.257812 -0.0859375 4.382812 -0.464844 4.636719 -1.164062 L 5.652344 -3.855469 C 6.5 -6.054688 7.664062 -9.019531 8.9375 -12.15625 C 9.59375 -12.21875 10.609375 -12.261719 12.535156 -12.261719 L 15.394531 -12.261719 C 16.433594 -12.261719 17.214844 -12.238281 17.808594 -12.21875 C 18.402344 -12.195312 18.824219 -12.15625 19.164062 -12.132812 L 19.375 -11.582031 C 19.714844 -10.734375 20.054688 -9.867188 20.390625 -8.976562 C 21.046875 -7.179688 21.640625 -5.441406 22.148438 -3.917969 C 22.636719 -2.394531 23.015625 -1.226562 23.207031 -0.550781 L 23.335938 0 L 29.453125 0 C 29.050781 -0.761719 28.628906 -1.628906 28.164062 -2.605469 C 27.378906 -4.277344 26.34375 -6.542969 25.242188 -9.339844 L 17.195312 -29.414062 L 13.445312 -29.074219 Z M 18.359375 -14.316406 C 17.679688 -14.292969 16.917969 -14.273438 15.414062 -14.273438 L 10.757812 -14.273438 C 10.355469 -14.273438 10.015625 -14.292969 9.742188 -14.316406 L 14.167969 -24.945312 Z M 18.359375 -14.316406 "/></g></g></g><g fill="#000000" fill-opacity="1"><g transform="translate(235.548136, 248.779399)"><g><path d="M 13.933594 0 C 13.871094 -0.910156 13.828125 -1.882812 13.785156 -2.921875 C 13.699219 -4.699219 13.636719 -7.007812 13.636719 -9.316406 L 13.636719 -27.105469 C 14.886719 -27.082031 16.007812 -27.019531 17.046875 -26.957031 C 19.101562 -26.785156 20.710938 -26.636719 22.171875 -26.449219 L 22.171875 -29.222656 L 0.402344 -29.222656 L 0.402344 -26.449219 C 1.1875 -26.53125 2.054688 -26.617188 2.964844 -26.703125 C 4.550781 -26.851562 6.628906 -27.019531 8.914062 -27.105469 L 8.914062 -9.316406 C 8.914062 -7.007812 8.832031 -4.699219 8.746094 -2.921875 C 8.683594 -1.882812 8.640625 -0.910156 8.597656 0 Z M 13.933594 0 "/></g></g></g><g fill="#000000" fill-opacity="1"><g transform="translate(258.049666, 248.779399)"><g><path d="M 4.785156 -9.019531 C 4.320312 -7.917969 3.832031 -6.839844 3.34375 -5.757812 C 2.328125 -3.621094 1.480469 -1.800781 0.550781 0 L 4.257812 0 C 4.257812 -0.0859375 4.382812 -0.464844 4.636719 -1.164062 L 5.652344 -3.855469 C 6.5 -6.054688 7.664062 -9.019531 8.9375 -12.15625 C 9.59375 -12.21875 10.609375 -12.261719 12.535156 -12.261719 L 15.394531 -12.261719 C 16.433594 -12.261719 17.214844 -12.238281 17.808594 -12.21875 C 18.402344 -12.195312 18.824219 -12.15625 19.164062 -12.132812 L 19.375 -11.582031 C 19.714844 -10.734375 20.054688 -9.867188 20.390625 -8.976562 C 21.046875 -7.179688 21.640625 -5.441406 22.148438 -3.917969 C 22.636719 -2.394531 23.015625 -1.226562 23.207031 -0.550781 L 23.335938 0 L 29.453125 0 C 29.050781 -0.761719 28.628906 -1.628906 28.164062 -2.605469 C 27.378906 -4.277344 26.34375 -6.542969 25.242188 -9.339844 L 17.195312 -29.414062 L 13.445312 -29.074219 Z M 18.359375 -14.316406 C 17.679688 -14.292969 16.917969 -14.273438 15.414062 -14.273438 L 10.757812 -14.273438 C 10.355469 -14.273438 10.015625 -14.292969 9.742188 -14.316406 L 14.167969 -24.945312 Z M 18.359375 -14.316406 "/></g></g></g><g fill="#000000" fill-opacity="1"><g transform="translate(288.044667, 248.779399)"><g><path d="M 3.894531 -9.316406 C 3.894531 -7.007812 3.8125 -4.699219 3.726562 -2.921875 C 3.664062 -1.882812 3.621094 -0.910156 3.578125 0 L 8.914062 0 C 8.851562 -0.910156 8.808594 -1.882812 8.746094 -2.921875 C 8.660156 -4.699219 8.597656 -7.007812 8.597656 -9.316406 L 8.597656 -19.839844 C 8.597656 -21.007812 8.617188 -22.148438 8.640625 -23.273438 C 8.703125 -25.496094 8.808594 -27.359375 8.914062 -29.222656 L 3.578125 -29.222656 C 3.621094 -28.289062 3.664062 -27.316406 3.726562 -26.277344 C 3.8125 -24.5 3.894531 -22.191406 3.894531 -19.839844 Z M 3.894531 -9.316406 "/></g></g></g><g fill="#000000" fill-opacity="1"><g transform="translate(300.554936, 248.779399)"><g><path d="M 3.917969 -9.316406 C 3.917969 -7.007812 3.832031 -4.699219 3.746094 -2.921875 C 3.683594 -1.882812 3.640625 -0.910156 3.601562 0 L 6.671875 0 C 7.304688 0 7.960938 0.0195312 8.640625 0.0429688 C 9.996094 0.105469 11.265625 0.148438 12.429688 0.210938 C 13 0.234375 13.53125 0.253906 13.976562 0.253906 C 18.824219 0.253906 22.636719 -1.269531 25.242188 -3.917969 C 27.84375 -6.5625 29.199219 -10.375 29.199219 -14.949219 C 29.199219 -19.714844 27.570312 -23.335938 24.859375 -25.769531 C 22.148438 -28.207031 18.335938 -29.433594 13.933594 -29.433594 C 12.851562 -29.433594 11.5 -29.390625 10.164062 -29.328125 C 8.832031 -29.265625 7.539062 -29.222656 6.671875 -29.222656 L 3.515625 -29.222656 L 3.707031 -26.277344 C 3.8125 -24.5 3.917969 -22.191406 3.917969 -19.839844 Z M 8.640625 -27.230469 C 8.957031 -27.230469 9.570312 -27.253906 10.460938 -27.273438 C 11.328125 -27.292969 12.34375 -27.292969 13.488281 -27.292969 C 16.21875 -27.292969 18.335938 -26.554688 19.925781 -25.367188 C 21.515625 -24.160156 22.574219 -22.488281 23.25 -20.582031 C 23.90625 -18.675781 24.183594 -16.515625 24.183594 -14.398438 C 24.183594 -10.164062 22.933594 -7.050781 20.984375 -4.976562 C 19.035156 -2.902344 16.367188 -1.882812 13.574219 -1.882812 C 12.640625 -1.882812 12.070312 -1.90625 11.414062 -1.925781 C 10.757812 -1.949219 10.035156 -1.96875 8.832031 -1.96875 C 8.722656 -3.664062 8.640625 -6.4375 8.640625 -9.316406 Z M 8.640625 -27.230469 "/></g></g></g><g fill="#000000" fill-opacity="1"><g transform="translate(330.909799, 248.779399)"><g><path d="M 17.957031 0 L 17.957031 -2.773438 C 17.300781 -2.667969 16.539062 -2.582031 15.648438 -2.5 C 14.101562 -2.351562 11.835938 -2.160156 8.765625 -2.097656 L 8.703125 -3.535156 C 8.683594 -4.066406 8.683594 -4.660156 8.660156 -5.273438 C 8.617188 -6.523438 8.597656 -7.898438 8.597656 -9.316406 L 8.597656 -14.570312 C 9.972656 -14.546875 11.136719 -14.503906 12.113281 -14.484375 C 14.039062 -14.398438 15.332031 -14.335938 16.261719 -14.25 L 16.261719 -17.023438 C 15.796875 -16.984375 15.203125 -16.941406 14.484375 -16.898438 C 13.234375 -16.835938 11.328125 -16.769531 8.597656 -16.707031 L 8.597656 -27.105469 C 10.058594 -27.0625 11.371094 -27 12.515625 -26.933594 C 14.78125 -26.785156 16.433594 -26.636719 17.808594 -26.449219 L 17.808594 -29.222656 L 3.472656 -29.222656 L 3.664062 -26.277344 C 3.769531 -24.5 3.875 -22.191406 3.875 -19.839844 L 3.875 -9.316406 C 3.875 -7.007812 3.789062 -4.699219 3.707031 -2.921875 C 3.640625 -1.882812 3.601562 -0.910156 3.558594 0 Z M 17.957031 0 "/></g></g></g><g fill="#000000" fill-opacity="1"><g transform="translate(350.511341, 248.779399)"><g><path d="M 2.5 -0.59375 C 3.175781 -0.359375 3.917969 -0.148438 4.722656 0.0429688 C 6.097656 0.359375 7.984375 0.675781 10.164062 0.675781 C 13.402344 0.675781 15.859375 -0.234375 17.492188 -1.757812 C 19.101562 -3.28125 19.925781 -5.421875 19.925781 -7.855469 C 19.925781 -9.867188 19.121094 -11.5 17.871094 -12.917969 C 16.621094 -14.335938 15.011719 -15.519531 13.363281 -16.621094 C 11.710938 -17.722656 10.078125 -18.761719 8.832031 -19.882812 C 7.582031 -20.984375 6.777344 -22.171875 6.777344 -23.589844 C 6.777344 -24.796875 7.304688 -25.855469 8.238281 -26.597656 C 9.148438 -27.335938 10.4375 -27.78125 11.964844 -27.78125 C 12.746094 -27.78125 13.46875 -27.695312 14.082031 -27.507812 C 15.332031 -27.148438 16.199219 -26.636719 16.726562 -26.234375 C 16.984375 -26.023438 17.152344 -25.898438 17.238281 -25.855469 L 17.703125 -28.671875 C 17.257812 -28.902344 16.769531 -29.09375 16.199219 -29.285156 C 15.203125 -29.601562 13.785156 -29.898438 12.007812 -29.898438 C 8.957031 -29.898438 6.710938 -29.136719 5.230469 -27.804688 C 3.746094 -26.46875 3.007812 -24.585938 3.007812 -22.296875 C 3.007812 -20.371094 3.832031 -18.804688 5.039062 -17.425781 C 6.246094 -16.050781 7.878906 -14.863281 9.507812 -13.742188 C 11.136719 -12.621094 12.769531 -11.539062 13.976562 -10.355469 C 15.183594 -9.167969 16.007812 -7.878906 16.007812 -6.351562 C 16.007812 -5.1875 15.542969 -3.960938 14.609375 -3.027344 C 13.679688 -2.074219 12.261719 -1.417969 10.375 -1.417969 C 9.378906 -1.417969 8.429688 -1.523438 7.558594 -1.714844 C 5.78125 -2.117188 4.382812 -2.605469 3.050781 -3.34375 Z M 2.5 -0.59375 "/></g></g></g></svg>